<svg width="20" height="20" viewBox="0 0 20 20" fill="none" xmlns="http://www.w3.org/2000/svg">
<path d="M17.285 10.8708C16.7208 11.0208 16.1383 11.0967 15.5542 11.0967C13.775 11.0967 12.1042 10.405 10.8492 9.15C9.17583 7.47667 8.51666 5.01083 9.12916 2.71417C9.20583 2.42667 9.12333 2.12 8.91333 1.91C8.70333 1.7 8.39749 1.615 8.10833 1.695C6.68999 2.07417 5.39666 2.81833 4.36749 3.84667C1.11916 7.095 1.11916 12.3825 4.36749 15.6325C5.94166 17.2067 8.03499 18.0742 10.2608 18.0742C12.4867 18.0742 14.5792 17.2075 16.1525 15.6333C17.1825 14.6025 17.9275 13.3075 18.305 11.8908C18.3817 11.6033 18.2983 11.2967 18.0883 11.0867C17.8783 10.8758 17.5708 10.7925 17.285 10.8708ZM14.975 14.455C13.7158 15.7142 12.0417 16.4075 10.2617 16.4075C8.48083 16.4075 6.80666 15.7133 5.54666 14.4542C2.94833 11.855 2.94833 7.625 5.54666 5.02583C6.04833 4.52417 6.62833 4.1075 7.26333 3.79C7.07833 6.19417 7.94166 8.6 9.67166 10.33C11.395 12.0542 13.7775 12.93 16.2117 12.7392C15.8933 13.3717 15.4758 13.9525 14.975 14.455Z" fill="currentColor"/>
</svg>
