<svg width="16" height="16" viewBox="0 0 16 16" fill="none" xmlns="http://www.w3.org/2000/svg">
<path d="M6.66671 12C7.89737 12 9.02871 11.5767 9.93137 10.8747L12.862 13.8053L13.8047 12.8627L10.874 9.932C11.5767 9.02866 12 7.89733 12 6.66666C12 3.726 9.60737 1.33333 6.66671 1.33333C3.72604 1.33333 1.33337 3.726 1.33337 6.66666C1.33337 9.60733 3.72604 12 6.66671 12ZM6.66671 2.66666C8.87271 2.66666 10.6667 4.46066 10.6667 6.66666C10.6667 8.87266 8.87271 10.6667 6.66671 10.6667C4.46071 10.6667 2.66671 8.87266 2.66671 6.66666C2.66671 4.46066 4.46071 2.66666 6.66671 2.66666Z" fill="#CBD5E0"/>
</svg>
