<svg width="20" height="20" viewBox="0 0 20 20" fill="none" xmlns="http://www.w3.org/2000/svg">
<path d="M5.82754 10C5.82754 12.3008 7.69921 14.1725 10 14.1725C12.3009 14.1725 14.1725 12.3008 14.1725 10C14.1725 7.69917 12.3009 5.82751 10 5.82751C7.69921 5.82751 5.82754 7.69917 5.82754 10ZM10 7.49417C11.3817 7.49417 12.5059 8.61834 12.5059 10C12.5059 11.3817 11.3817 12.5058 10 12.5058C8.61837 12.5058 7.49421 11.3817 7.49421 10C7.49421 8.61834 8.61837 7.49417 10 7.49417ZM9.16504 15.8333H10.8317V18.3333H9.16504V15.8333ZM9.16504 1.66667H10.8317V4.16667H9.16504V1.66667ZM1.66504 9.16667H4.16504V10.8333H1.66504V9.16667ZM15.8317 9.16667H18.3317V10.8333H15.8317V9.16667Z" fill="currentColor"/>
<path d="M3.51587 15.3028L5.28311 13.5345L6.46197 14.7127L4.69473 16.481L3.51587 15.3028Z" fill="currentColor"/>
<path d="M13.5336 5.28632L15.3019 3.51793L16.4804 4.69642L14.7121 6.46481L13.5336 5.28632Z" fill="currentColor"/>
<path d="M5.28479 6.46548L3.51755 4.69719L4.69641 3.51903L6.46365 5.28732L5.28479 6.46548Z" fill="currentColor"/>
<path d="M16.4799 15.3029L15.3014 16.4815L13.533 14.7131L14.7115 13.5346L16.4799 15.3029Z" fill="currentColor"/>
</svg>
